# xmcd
#
# Track frame offsets:
#	150
#	9434
#	24406
#	33779
#	47242
#	56501
#	73506
#	92037
#	109451
#	125946
#	140042
#	148932
#
# Disc length: 2228 seconds
#
# Revision: 0
# Processed by: cddbd v1.5.2PL0 Copyright (c) Steve Scherf et al.
# Submitted via: EasyCDDAExtractor 10.2.0.1
#
DISCID=b108b20c
DTITLE=The Smoky Mountain Boys - Now And Again
DYEAR=2003
DGENRE=Bluegrass
TTITLE0=Stand Fast In The Fight
TTITLE1=Good Morning Lord
TTITLE2=The View From Here
TTITLE3=On My Way Home
TTITLE4=They Tell Me
TTITLE5=Not Of Myself
TTITLE6=Let The Spirit Descend
TTITLE7=One Of The Fold
TTITLE8=Someone Had To Die
TTITLE9=He Is Alive
TTITLE10=Where The Soul Of Man Never Dies
TTITLE11=How Great Thou Art
EXTD=
EXTT0=
EXTT1=
EXTT2=
EXTT3=
EXTT4=
EXTT5=
EXTT6=
EXTT7=
EXTT8=
EXTT9=
EXTT10=
EXTT11=
PLAYORDER=
